<svg aria-hidden="true" style="position: absolute; width: 0; height: 0; overflow: hidden;" version="1.1" xmlns="http://www.w3.org/2000/svg" xmlns:xlink="http://www.w3.org/1999/xlink">
<defs>
<symbol id="icon-d" viewBox="0 0 32 32">
<path stroke-linejoin="round" stroke-linecap="round" stroke-miterlimit="4" stroke-width="2.1917" d="M11.681 30.383h8.766c7.305 0 10.227-2.922 10.227-10.227v-8.766c0-7.305-2.922-10.227-10.227-10.227h-8.766c-7.305 0-10.227 2.922-10.227 10.227v8.766c0 7.305 2.922 10.227 10.227 10.227z"></path>
<path stroke-linejoin="round" stroke-linecap="round" stroke-miterlimit="4" stroke-width="2.1917" d="M8.32 11.77l7.743 4.485 7.685-4.456M16.064 24.202v-7.962"></path>
<path stroke-linejoin="round" stroke-linecap="round" stroke-miterlimit="4" stroke-width="2.1917" d="M14.253 7.431l-4.675 2.601c-1.052 0.584-1.929 2.060-1.929 3.272v4.952c0 1.213 0.862 2.688 1.929 3.273l4.675 2.601c0.994 0.555 2.63 0.555 3.638 0l4.675-2.601c1.052-0.584 1.928-2.060 1.928-3.273v-4.967c0-1.213-0.862-2.688-1.928-3.273l-4.675-2.601c-1.008-0.555-2.644-0.555-3.638 0.015z"></path>
</symbol>
<symbol id="icon-chevron" viewBox="0 0 32 32">
<path fill="none" stroke-linejoin="round" stroke-linecap="round" stroke-miterlimit="4" stroke-width="4" d="M12 24l8-8-8-8"></path>
</symbol>
<symbol id="icon-discount" viewBox="0 0 32 32">
<path d="M16.069 31.467c-0.924 0-1.788-0.351-2.433-1.011l-2.227-2.228c-0.176-0.176-0.646-0.366-0.88-0.366h-3.166c-0.001 0-0.002 0-0.004 0-1.9 0-3.44-1.54-3.44-3.44 0-0.002 0-0.003 0-0.005v0-3.165c0-0.235-0.191-0.704-0.366-0.88l-2.227-2.227c-0.625-0.621-1.011-1.48-1.011-2.43 0-0.001 0-0.002 0-0.003v0c0-0.924 0.351-1.788 1.011-2.433l2.227-2.228c0.176-0.176 0.366-0.645 0.366-0.879v-3.166c0-0.001 0-0.002 0-0.004 0-1.9 1.54-3.44 3.44-3.44 0.002 0 0.003 0 0.005 0h3.165c0.234 0 0.703-0.191 0.879-0.366l2.227-2.227c1.29-1.29 3.576-1.29 4.866 0l2.227 2.227c0.176 0.176 0.645 0.366 0.879 0.366h3.166c0.001 0 0.002 0 0.004 0 1.9 0 3.44 1.54 3.44 3.44 0 0.002 0 0.003 0 0.005v-0 3.165c0 0.234 0.191 0.703 0.366 0.879l2.227 2.227c0.625 0.621 1.011 1.48 1.011 2.43 0 0.001 0 0.002 0 0.003v-0c0 0.924-0.351 1.788-1.011 2.433l-2.227 2.227c-0.176 0.176-0.366 0.645-0.366 0.88v3.166c0 0.001 0 0.003 0 0.004 0 1.9-1.54 3.44-3.44 3.44-0.002 0-0.003 0-0.005 0h-3.165c-0.234 0-0.703 0.19-0.879 0.366l-2.227 2.227c-0.645 0.66-1.51 1.011-2.433 1.011zM5.106 18.819c0.586 0.586 1.011 1.613 1.011 2.433v3.166c0 0.689 0.557 1.245 1.245 1.245h3.166c0.821 0 1.847 0.425 2.433 1.011l2.227 2.227c0.469 0.469 1.29 0.469 1.759 0l2.227-2.227c0.586-0.586 1.613-1.011 2.433-1.011h3.166c0 0 0 0 0.001 0 0.688 0 1.245-0.557 1.245-1.245 0-0 0-0 0-0.001v0-3.166c0-0.821 0.425-1.847 1.011-2.433l2.227-2.227c0.226-0.223 0.366-0.533 0.366-0.876 0-0.001 0-0.003 0-0.004v0c0-0.001 0-0.002 0-0.003 0-0.343-0.14-0.653-0.366-0.876l-0-0-2.227-2.227c-0.586-0.587-1.011-1.613-1.011-2.433v-3.166c0-0 0-0 0-0.001 0-0.688-0.557-1.245-1.245-1.245-0 0-0 0-0.001 0h-3.166c-0.821 0-1.847-0.425-2.433-1.011l-2.227-2.227c-0.469-0.469-1.29-0.469-1.759 0l-2.227 2.227c-0.587 0.587-1.613 1.011-2.433 1.011h-3.166c-0 0-0 0-0.001 0-0.688 0-1.245 0.557-1.245 1.245 0 0 0 0 0 0.001v-0 3.166c0 0.821-0.425 1.847-1.011 2.433l-2.227 2.227c-0.226 0.223-0.366 0.533-0.366 0.876 0 0.001 0 0.003 0 0.004v-0c0 0.337 0.132 0.645 0.366 0.879l2.227 2.227z"></path>
<path d="M20.466 21.574c-0.002 0-0.005 0-0.008 0-0.811 0-1.469-0.655-1.473-1.465v-0c0.003-0.809 0.658-1.464 1.466-1.466h0c0.808 0.003 1.463 0.657 1.465 1.465v0c0 0.806-0.644 1.466-1.451 1.466zM11.687 12.781c-0.002 0-0.005 0-0.008 0-0.811 0-1.469-0.655-1.473-1.465v-0c0.002-0.809 0.658-1.464 1.466-1.466h0c0.808 0.003 1.463 0.657 1.465 1.466v0c0 0.806-0.644 1.466-1.451 1.466zM11.671 21.208c-0.279 0-0.557-0.103-0.777-0.323-0.197-0.2-0.319-0.474-0.319-0.777s0.122-0.577 0.319-0.777l8.794-8.794c0.2-0.197 0.474-0.319 0.777-0.319s0.577 0.122 0.777 0.319l-0-0c0.197 0.2 0.319 0.474 0.319 0.777s-0.122 0.577-0.319 0.777l-8.793 8.794c-0.22 0.22-0.498 0.323-0.777 0.323z"></path>
</symbol>
<symbol id="icon-key" viewBox="0 0 32 32">
<path d="M20.466 31.511h-8.793c-7.959 0-11.359-3.401-11.359-11.359v-8.793c0-7.959 3.401-11.359 11.359-11.359h8.793c7.959 0 11.359 3.401 11.359 11.359v8.793c0 7.959-3.401 11.359-11.359 11.359zM11.672 2.199c-6.757 0-9.161 2.403-9.161 9.16v8.793c0 6.757 2.404 9.161 9.161 9.161h8.793c6.757 0 9.161-2.404 9.161-9.161v-8.793c0-6.757-2.404-9.161-9.161-9.161h-8.793z"></path>
<path d="M11.393 24.916c-0.102 0-0.22 0-0.322-0.030l-1.744-0.234c-1.055-0.147-1.978-1.055-2.14-2.14l-0.249-1.774c-0.102-0.703 0.191-1.598 0.703-2.125l3.342-3.342c-0.099-0.446-0.156-0.959-0.156-1.485 0-1.987 0.811-3.784 2.119-5.080l0.001-0.001c2.799-2.8 7.373-2.8 10.171 0 1.304 1.294 2.111 3.087 2.111 5.068 0 0.006 0 0.012-0 0.018v-0.001c0 1.92-0.747 3.738-2.11 5.085-1.744 1.73-4.206 2.448-6.566 1.95l-3.356 3.342c-0.425 0.454-1.143 0.747-1.803 0.747zM18.033 8.793c-1.275 0-2.564 0.483-3.532 1.466-1.319 1.319-1.788 3.239-1.245 5.027 0.117 0.395 0.014 0.806-0.279 1.099l-3.782 3.781c-0.029 0.044-0.088 0.205-0.088 0.264l0.249 1.759c0.015 0.088 0.176 0.25 0.264 0.264l1.759 0.25c0.073-0.014 0.22-0.044 0.264-0.088l3.796-3.796c0.197-0.195 0.469-0.315 0.768-0.315 0.118 0 0.232 0.019 0.339 0.054l-0.008-0.002c0.447 0.146 0.961 0.231 1.495 0.231 1.374 0 2.618-0.559 3.517-1.461l0-0c0.905-0.902 1.466-2.149 1.466-3.528 0-0.002 0-0.003 0-0.005v0c0-1.333-0.513-2.594-1.466-3.533-0.897-0.905-2.141-1.465-3.515-1.465-0.001 0-0.002 0-0.003 0h0z"></path>
<path d="M13.796 23.128c-0.279 0-0.557-0.103-0.777-0.323l-1.261-1.261c-0.197-0.2-0.319-0.474-0.319-0.776s0.122-0.577 0.319-0.777l-0 0c0.2-0.197 0.474-0.319 0.777-0.319s0.577 0.122 0.777 0.319l1.26 1.26c0.197 0.2 0.319 0.474 0.319 0.777s-0.122 0.577-0.319 0.777l0-0c-0.205 0.22-0.484 0.322-0.777 0.322zM18.090 15.462c-0.009 0-0.021 0-0.032 0-0.194 0-0.38-0.038-0.549-0.106l0.010 0.004c-0.183-0.080-0.338-0.189-0.469-0.322l-0-0c-0.27-0.265-0.438-0.633-0.439-1.041v-0c0-0.381 0.161-0.762 0.439-1.026 0.261-0.271 0.627-0.439 1.032-0.439 0.101 0 0.2 0.011 0.296 0.031l-0.009-0.002c0.088 0.030 0.191 0.044 0.279 0.088s0.176 0.088 0.249 0.132c0.073 0.059 0.161 0.117 0.22 0.191 0.279 0.264 0.44 0.645 0.44 1.026 0 0.205-0.044 0.382-0.117 0.572-0.073 0.176-0.176 0.337-0.323 0.469-0.261 0.262-0.623 0.425-1.022 0.425-0.001 0-0.003 0-0.004 0h0z"></path>
</symbol>
<symbol id="icon-logo" viewBox="0 0 32 32">
<path d="M16 30.173c-0.893 0-1.8-0.201-2.506-0.614l-7.334-4.227c-2.986-2.013-3.172-2.32-3.172-5.48v-7.706c0-3.161 0.173-3.468 3.107-5.454l7.386-4.266c1.401-0.813 3.6-0.813 5.001 0l7.36 4.24c2.986 2.013 3.173 2.32 3.173 5.48v7.694c0 3.159-0.173 3.466-3.107 5.453l-7.387 4.266c-0.72 0.413-1.626 0.614-2.52 0.614zM16 3.826c-0.56 0-1.107 0.107-1.493 0.334l-7.334 4.24c-2.173 1.467-2.173 1.467-2.173 3.747v7.694c0 2.28 0 2.28 2.226 3.786l7.28 4.2c0.787 0.453 2.213 0.453 2.999 0l7.334-4.24c2.16-1.467 2.16-1.467 2.16-3.747v-7.694c0-2.28 0-2.28-2.227-3.786l-7.28-4.2c-0.387-0.227-0.934-0.334-1.494-0.334z"></path>
<path d="M16 21c-2.761-0.001-4.999-2.239-5-5v-0c0.001-2.761 2.239-4.999 5-5h0c2.761 0.001 4.999 2.239 5 5v0c-0.001 2.761-2.239 4.999-5 5h-0zM16 13c-1.656 0.002-2.998 1.344-3 3v0c0.002 1.656 1.344 2.998 3 3h0c1.656-0.002 2.998-1.344 3-3v-0c-0.002-1.656-1.344-2.998-3-3h-0z"></path>
</symbol>
<symbol id="icon-message" viewBox="0 0 34 32">
<path stroke-linejoin="round" stroke-linecap="round" stroke-miterlimit="10" stroke-width="2.3182" d="M24.717 25.954h-6.181l-6.876 4.575c-1.020 0.679-2.395-0.047-2.395-1.282v-3.292c-4.636-0.001-7.726-3.091-7.726-7.727v-9.271c0-4.636 3.090-7.726 7.726-7.726h15.452c4.636 0 7.726 3.090 7.726 7.726v9.271c0 4.636-3.090 7.726-7.726 7.726z"></path>
<path stroke-linejoin="round" stroke-linecap="round" stroke-miterlimit="4" stroke-width="2.3182" d="M16.991 15.030v-0.324c0-1.050 0.649-1.607 1.298-2.055 0.633-0.433 1.266-0.989 1.266-2.009 0-0.002 0-0.004 0-0.006 0-1.413-1.146-2.559-2.559-2.559-0.002 0-0.004 0-0.006 0h0c-0.002 0-0.004 0-0.006 0-1.413 0-2.559 1.146-2.559 2.559 0 0.002 0 0.004 0 0.007v-0M16.984 18.722h0.014"></path>
</symbol>
<symbol id="icon-search" viewBox="0 0 32 32">
<path fill="none" stroke="#7e7e7e" style="stroke: var(--color2, #7e7e7e)" stroke-linejoin="round" stroke-linecap="round" stroke-miterlimit="4" stroke-width="2.6667" d="M14.667 25.333c5.891 0 10.667-4.776 10.667-10.667s-4.776-10.667-10.667-10.667v0c-5.891 0-10.667 4.776-10.667 10.667s4.776 10.667 10.667 10.667v0zM28 28l-5.8-5.8"></path>
</symbol>
<symbol id="icon-user" viewBox="0 0 32 32">
<path stroke-linejoin="round" stroke-linecap="round" stroke-miterlimit="4" stroke-width="2.1917" d="M24.742 29.828c-1.286 0.38-2.805 0.555-4.588 0.555h-8.766c-1.782 0-3.302-0.175-4.587-0.555 0.321-3.799 4.222-6.793 8.97-6.793s8.649 2.995 8.97 6.793z"></path>
<path stroke-linejoin="round" stroke-linecap="round" stroke-miterlimit="4" stroke-width="2.1917" d="M1.164 17.146v3.010c0 5.523 1.666 8.547 5.64 9.672 0.321-3.799 4.222-6.793 8.97-6.793s8.649 2.995 8.97 6.793c3.974-1.125 5.639-4.149 5.639-9.672v-8.766c0-7.305-2.922-10.227-10.227-10.227h-8.766c-7.305 0-10.227 2.922-10.227 10.227v5.756zM15.773 18.943c-2.893 0-5.231-2.352-5.231-5.245 0-0.002 0-0.003 0-0.005 0-2.886 2.339-5.225 5.225-5.225 0.002 0 0.004 0 0.006 0h-0c0.002 0 0.004 0 0.006 0 2.886 0 5.225 2.339 5.225 5.225 0 0.002 0 0.004 0 0.006v-0c0 2.892-2.338 5.245-5.231 5.245z"></path>
<path stroke-linejoin="round" stroke-linecap="round" stroke-miterlimit="4" stroke-width="2.1917" d="M21.004 13.698c0 2.893-2.338 5.245-5.231 5.245s-5.231-2.352-5.231-5.245c0-0.002 0-0.003 0-0.005 0-2.886 2.339-5.225 5.225-5.225 0.002 0 0.004 0 0.006 0h-0c0.002 0 0.004 0 0.006 0 2.886 0 5.225 2.339 5.225 5.225 0 0.002 0 0.004 0 0.006v-0z"></path>
</symbol>
<symbol id="icon-wallet" viewBox="0 0 35 32">
<path d="M9.766 31.793c-3.784 0-6.883-2.751-6.883-6.136v-3.243c0-0.652 0.541-1.192 1.193-1.192s1.191 0.54 1.191 1.192c0 1.987 1.924 3.481 4.499 3.481s4.499-1.494 4.499-3.481c0-0.652 0.54-1.192 1.191-1.192s1.193 0.54 1.193 1.192v3.243c0 3.386-3.084 6.136-6.883 6.136zM5.681 27.214c0.699 1.304 2.273 2.194 4.085 2.194s3.386-0.906 4.085-2.194c-1.128 0.684-2.527 1.081-4.085 1.081s-2.956-0.398-4.085-1.081z"></path>
<path d="M9.766 23.924c-2.607 0-4.943-1.192-6.104-3.084-0.489-0.789-0.779-1.747-0.779-2.772 0-0.003 0-0.006 0-0.010v0c0-1.669 0.731-3.227 2.066-4.387 2.575-2.258 7.010-2.258 9.601-0.016 1.335 1.176 2.082 2.734 2.082 4.403 0 0.003 0 0.006 0 0.009 0 1.025-0.29 1.983-0.792 2.795l0.013-0.023c-1.144 1.892-3.481 3.084-6.088 3.084zM9.766 14.307c-1.24 0-2.384 0.413-3.243 1.16-0.81 0.699-1.256 1.622-1.256 2.591 0 0.556 0.143 1.065 0.429 1.542 0.731 1.208 2.289 1.955 4.069 1.955s3.338-0.747 4.054-1.939c0.286-0.461 0.429-0.986 0.429-1.542 0-0.97-0.445-1.891-1.255-2.607-0.843-0.747-1.987-1.16-3.227-1.16z"></path>
<path d="M9.766 28.296c-3.926 0-6.883-2.527-6.883-5.866v-4.372c0-3.386 3.084-6.136 6.883-6.136 1.796 0 3.513 0.62 4.801 1.733 1.335 1.176 2.083 2.734 2.083 4.403v4.371c0 3.339-2.957 5.866-6.883 5.866zM9.766 14.307c-2.48 0-4.498 1.685-4.498 3.752v4.371c0 1.987 1.923 3.482 4.498 3.482s4.499-1.494 4.499-3.482v-4.371c0-0.97-0.445-1.891-1.256-2.608-0.858-0.731-2.003-1.144-3.243-1.144zM28.635 19.155c-2.401 0-4.435-1.78-4.626-4.069-0.127-1.319 0.35-2.607 1.303-3.544 0.795-0.827 1.923-1.287 3.116-1.287h3.323c1.573 0.048 2.781 1.287 2.781 2.813v3.275c0 0 0 0.001 0 0.001 0 1.526-1.215 2.768-2.73 2.812l-0.004 0h-3.163zM31.703 12.638h-3.259c-0.556 0-1.065 0.206-1.431 0.588-0.461 0.445-0.683 1.049-0.62 1.653 0.080 1.049 1.097 1.891 2.241 1.891h3.116c0.207 0 0.398-0.191 0.398-0.429v-3.275c0-0.238-0.191-0.413-0.445-0.429z"></path>
<path d="M23.803 29.408h-3.974c-0.656-0.005-1.186-0.536-1.192-1.191v-0c0-0.652 0.54-1.193 1.192-1.193h3.974c4.101 0 6.756-2.655 6.756-6.756v-1.113h-1.923c-2.401 0-4.435-1.78-4.626-4.069-0.127-1.319 0.349-2.608 1.303-3.545 0.795-0.827 1.923-1.287 3.116-1.287h2.114v-1.113c0-3.72-2.177-6.279-5.706-6.693-0.381-0.063-0.716-0.063-1.049-0.063h-14.307c-0.381 0-0.748 0.032-1.113 0.080-3.497 0.445-5.643 2.989-5.643 6.676v3.18c0 0.652-0.541 1.191-1.192 1.191-0.656-0.005-1.187-0.535-1.193-1.19v-3.18c0-4.897 3.020-8.442 7.71-9.030 0.428-0.068 0.923-0.108 1.427-0.111h14.31c0.381 0 0.874 0.016 1.382 0.095 4.69 0.541 7.758 4.101 7.758 9.045v2.305c0 0.652-0.541 1.192-1.193 1.192h-3.306c-0.556 0-1.065 0.207-1.43 0.588-0.462 0.445-0.684 1.049-0.621 1.653 0.080 1.049 1.098 1.892 2.242 1.892h3.131c0.652 0 1.191 0.541 1.191 1.192v2.305c0 5.469-3.671 9.14-9.14 9.14z"></path>
</symbol>
<symbol id="icon-menu" viewBox="0 0 32 32">
<path d="M6.4 11.734v-2.134h19.2v2.134h-19.2zM6.4 17.066h19.2v-2.133h-19.2v2.133zM6.4 22.4h19.2v-2.134h-19.2v2.134z"></path>
</symbol>
<symbol id="icon-close" viewBox="0 0 32 32">
<path d="M23.734 10.304l-1.504-1.504-5.963 5.962-5.962-5.962-1.504 1.504 5.962 5.962-5.962 5.963 1.504 1.504 5.962-5.963 5.963 5.963 1.504-1.504-5.963-5.963 5.963-5.962z"></path>
</symbol>
</defs>
</svg>
