<svg aria-hidden="true" style="position: absolute; width: 0; height: 0; overflow: hidden;" version="1.1" xmlns="http://www.w3.org/2000/svg" xmlns:xlink="http://www.w3.org/1999/xlink">
<defs>
<symbol id="icon-search" viewBox="0 0 32 32">
<path d="M14.667 6.667c-4.418 0-8 3.582-8 8s3.582 8 8 8v0c4.418 0 8-3.582 8-8s-3.582-8-8-8v0zM4 14.667c0.001-5.89 4.776-10.665 10.667-10.665s10.667 4.776 10.667 10.667c0 2.475-0.843 4.753-2.258 6.563l0.018-0.024 4.516 4.516c0.232 0.24 0.374 0.566 0.374 0.926 0 0.736-0.597 1.333-1.333 1.333-0.36 0-0.687-0.143-0.927-0.375l-4.516-4.516c-1.787 1.398-4.065 2.241-6.541 2.241-5.891 0-10.667-4.776-10.667-10.667 0-0 0-0.001 0-0.001v0z"></path>
</symbol>
</defs>
</svg>
